HIERARCHY
ROOT Hips
{
  OFFSET -331.093 83.8371 -317.828
  CHANNELS 6 Xposition Yposition Zposition Zrotation Xrotation Yrotation
  JOINT LeftUpLeg
  {
    OFFSET 8.64259 1.95398 -2.38835
    CHANNELS 3 Zrotation Xrotation Yrotation
    JOINT LeftLeg
    {
      OFFSET 43.7702 0 0
      CHANNELS 3 Zrotation Xrotation Yrotation
      JOINT LeftFoot
      {
        OFFSET 40.6238 0 0
        CHANNELS 3 Zrotation Xrotation Yrotation
        JOINT LeftToeBase
        {
          OFFSET 12.7242 0 0
          CHANNELS 3 Zrotation Xrotation Yrotation
          End Site
          {
            OFFSET 0 0 0
          }
        }
      }
    }
  }
  JOINT RightUpLeg
  {
    OFFSET -8.2249 1.95398 -2.59336
    CHANNELS 3 Zrotation Xrotation Yrotation
    JOINT RightLeg
    {
      OFFSET 43.5653 0 0
      CHANNELS 3 Zrotation Xrotation Yrotation
      JOINT RightFoot
      {
        OFFSET 40.6238 0 0
        CHANNELS 3 Zrotation Xrotation Yrotation
        JOINT RightToeBase
        {
          OFFSET 12.7242 0 0
          CHANNELS 3 Zrotation Xrotation Yrotation
          End Site
          {
            OFFSET 0 0 0
          }
        }
      }
    }
  }
  JOINT Spine
  {
    OFFSET 0.165834 0.87714 6.61349
    CHANNELS 3 Zrotation Xrotation Yrotation
    JOINT Spine1
    {
      OFFSET 7.38963 1.71661e-005 0
      CHANNELS 3 Zrotation Xrotation Yrotation
      JOINT Spine2
      {
        OFFSET 11.9445 1.14441e-005 0
        CHANNELS 3 Zrotation Xrotation Yrotation
        JOINT Spine3
        {
          OFFSET 14.7254 4.19617e-005 0
          CHANNELS 3 Zrotation Xrotation Yrotation
          JOINT Spine4
          {
            OFFSET 10.9679 0 0
            CHANNELS 3 Zrotation Xrotation Yrotation
            JOINT RightShoulder
            {
              OFFSET 2.46616 -1.6653 3.69651
              CHANNELS 3 Zrotation Xrotation Yrotation
              JOINT RightArm
              {
                OFFSET 13.0012 0 0
                CHANNELS 3 Zrotation Xrotation Yrotation
                JOINT RightForeArm
                {
                  OFFSET 28.7848 1.62311e-005 0
                  CHANNELS 3 Zrotation Xrotation Yrotation
                  JOINT RightHand
                  {
                    OFFSET 26.5688 1.62095e-005 0
                    CHANNELS 3 Zrotation Xrotation Yrotation
                    End Site
                    {
                      OFFSET 0 0 0
                    }
                  }
                }
              }
            }
            JOINT LeftShoulder
            {
              OFFSET 2.38034 -1.29275 -3.7523
              CHANNELS 3 Zrotation Xrotation Yrotation
              JOINT LeftArm
              {
                OFFSET 16.3182 6.07031e-005 0
                CHANNELS 3 Zrotation Xrotation Yrotation
                JOINT LeftForeArm
                {
                  OFFSET 27.0901 0 0
                  CHANNELS 3 Zrotation Xrotation Yrotation
                  JOINT LeftHand
                  {
                    OFFSET 24.5451 1.51738e-005 0
                    CHANNELS 3 Zrotation Xrotation Yrotation
                    End Site
                    {
                      OFFSET 0 0 0
                    }
                  }
                }
              }
            }
            JOINT Neck
            {
              OFFSET 5.0226 -0.0266342 0
              CHANNELS 3 Zrotation Xrotation Yrotation
              JOINT Head
              {
                OFFSET 6.69364 2.86102e-005 0
                CHANNELS 3 Zrotation Xrotation Yrotation
                End Site
                {
                  OFFSET 0 0 0
                }
              }
            }
          }
        }
      }
    }
  }
}
MOTION
Frames:	12
Frame Time:	0.0416667
79.5488 97.6973 -4.01683 91.3725 -42.7799 88.192 -176.115 15.9766 86.8663 -22.3149 9.21111 -2.2202 58.1471 -0.707731 4.83368 36.3026 3.65516 -6.44968 176.279 9.9908 86.2787 -57.4421 -2.02353 -6.0639 58.1339 0.652752 0.293241 38.8359 -1.71252 -7.39251 0.458206 7.33916 -89.5805 12.1921 1.10938 0.713171 0.521479 1.13967 0.663645 -22.0146 0.843735 1.0136 -2.00191 0.843741 1.0136 91.2653 -38.9749 -101.12 22.6304 -17.1465 -8.99269 -10.7634 -7.22362 -57.7646 -11.758 -0.697883 1.50203 -96.4234 -47.4636 68.9072 -25.4124 8.8026 16.5236 6.27948 10.4136 -40.4038 12.7735 0.943308 3.41226 1.93528 -2.19211 1.53957 1.28363 -2.42834 -1.13359 
69.1304 94.9735 -9.87761 90.5591 -43.2527 86.7766 -175.967 26.1465 87.3233 -26.1824 7.71641 -2.42649 58.69 -0.684353 2.77256 24.5582 -2.86699 1.43611 174.512 -0.0296236 83.507 -54.2997 -11.295 -8.29126 55.2573 2.73935 1.67158 40.405 -1.17978 -4.37333 0.860935 7.2528 -89.4317 12.3608 1.98069 0.909727 0.691156 2.0188 0.821637 -21.8502 1.61573 1.46301 -1.83751 1.61572 1.46301 91.1057 -38.375 -101.567 19.6639 -12.11 -15.7485 -14.3333 -8.1289 -62.1694 -13.0256 -0.856775 2.30054 -96.227 -47.2696 69.1374 -25.9468 7.16233 19.7609 4.77608 14.503 -32.5539 12.3914 1.0521 4.43248 2.27234 -3.72875 -0.192964 1.48862 -3.63757 -0.0524586 
56.7085 93.792 -16.5492 89.5738 -45.1602 88.5386 -177.584 30.542 92.1728 -18.1367 5.94748 -1.12763 59.2452 0.211792 1.89529 36.9027 9.43233 9.4133 174.408 -5.59578 86.9096 -39.9273 -15.7055 -8.94664 61.028 0.167938 0.0112862 52.7904 -0.80368 -0.998511 1.19939 7.25455 -89.8103 12.3706 2.47337 0.094226 0.702061 2.47511 -0.014803 -21.8507 2.33063 0.833626 -1.83804 2.33065 0.833621 90.6785 -36.0592 -103.008 19.9274 -8.89199 -20.4398 -15.3664 -8.98873 -60.6582 -12.5679 -0.902269 3.00606 -97.291 -49.1427 68.183 -24.5442 3.72504 19.9179 3.39957 14.7491 -27.1436 12.7524 1.16173 5.04045 1.32033 -3.27109 2.24096 1.87056 -3.58464 -0.768716 
43.9442 94.5823 -23.5395 90.4829 -43.4734 91.6941 -176.924 27.542 94.7612 -8.94327 3.02362 -1.01118 60.7544 3.45373 3.40783 40.3815 13.5012 11.4249 173.308 -2.98166 92.5706 -34.2739 -8.20771 -4.77158 72.1396 -5.1107 -2.92141 47.7688 -1.32954 -3.54478 0.99003 7.42903 -90.2281 12.0201 1.86074 -0.656623 0.350262 1.83005 -0.737919 -22.1955 1.97202 -0.0668349 -2.18282 1.97203 -0.0668345 91.2451 -35.92 -102.027 20.041 -11.9121 -20.5928 -12.5551 -8.62513 -57.6685 -11.9951 -0.802609 2.41264 -98.6563 -50.3219 66.5968 -23.7647 4.83431 18.8245 3.66454 12.6438 -30.3321 13.0627 1.11872 4.52619 1.04978 -2.60577 3.92229 2.4711 -3.17917 -0.806432 
34.6824 96.9002 -28.9945 92.0992 -39.8175 90.9597 -174.761 23.7196 91.4972 -24.322 5.1796 -1.59516 57.1281 -0.886532 0.912537 39.5899 12.1868 10.1332 174.014 2.37185 93.4638 -33.404 -3.12381 -3.96701 71.5516 -3.85584 -2.30161 39.3876 -1.27936 -5.07341 0.511974 7.47459 -90.0624 11.9262 0.988635 -0.230871 0.25554 0.977534 -0.27417 -22.2824 1.0123 0.0769505 -2.26979 1.01232 0.0769577 90.3041 -38.5533 -102.923 21.7439 -17.4188 -9.77132 -11.9215 -10.2223 -53.7314 -11.4406 -0.728941 1.87848 -98.8488 -50.105 66.2435 -23.0446 7.61324 15.2609 3.92324 10.7273 -34.2334 16.2379 1.25832 3.86409 -0.093735 -2.7844 3.08658 2.15137 -3.20169 -0.809063 
27.129 98.9389 -34.3234 93.4718 -37.5475 90.1265 -172.507 14.8355 89.6282 -40.996 8.38464 -1.67276 57.7707 -0.736867 2.0605 35.0437 9.31301 13.7624 173.934 6.78501 92.2234 -31.7413 -3.01435 -3.53742 66.5586 -1.26639 -0.962257 35.335 -0.860425 -4.21871 0.200076 7.4209 -89.904 12.0318 0.443132 0.143041 0.36096 0.448991 0.123393 -22.1746 0.379635 0.269603 -2.16196 0.379651 0.269604 90.6193 -40.4358 -101.837 26.861 -21.6621 3.11213 -10.8434 -14.6534 -46.845 -7.57797 -0.502577 1.45045 -98.0549 -49.1316 67.0588 -21.6102 9.44657 11.1707 6.02773 8.28242 -42.5117 17.7599 1.32956 3.61706 -1.17687 -2.97381 2.4517 1.54017 -3.26813 -0.464745 
19.2794 97.9072 -40.0941 92.2672 -36.1121 90.0815 -171.403 4.4189 89.6559 -47.2212 16.1368 -0.734476 55.3363 -3.1579 0.189713 36.2837 10.1879 12.8093 174.021 14.2932 93.1145 -32.9141 -0.488211 -1.81001 67.1267 -1.6785 -1.12203 30.6894 -0.307599 -2.07175 -0.243102 7.17877 -90.0619 12.5163 -0.51242 -0.0644479 0.84547 -0.514747 -0.0418337 -21.6903 -0.469371 -0.21547 -1.6777 -0.469363 -0.215473 90.5824 -40.1866 -101.97 31.9402 -20.3371 13.4618 -9.61493 -19.1272 -40.1576 -2.96389 -0.282129 2.56661 -96.8116 -48.4616 68.6605 -19.6816 7.98124 8.27126 11.1458 6.82291 -54.377 16.6631 1.3061 3.94579 0.0520354 -2.22262 2.83044 -0.776592 -2.59377 -0.230873 
10.0788 94.9697 -47.1009 90.6672 -34.9217 89.6021 -172.124 -4.1975 94.4009 -41.4941 27.7828 0.235893 53.4955 -4.04252 1.10084 43.7802 17.3631 12.6789 175.102 25.4488 94.075 -37.7243 2.18585 -1.11124 66.9825 -1.81336 -1.21649 28.7331 -0.173094 -1.54569 -0.728918 7.09391 -90.1117 12.6864 -1.50111 -0.0469759 1.01631 -1.50171 0.0191442 -21.5251 -1.41758 -0.49604 -1.51247 -1.41758 -0.496041 90.6475 -41.2663 -101.561 32.3708 -15.1803 18.8147 -9.20089 -20.0673 -35.0263 -3.75486 -0.396301 5.29475 -96.2301 -47.629 69.2515 -15.3175 5.89392 3.41068 11.3945 4.02175 -60.1775 16.055 1.34263 4.44821 2.43684 -1.24204 1.75456 -2.23099 -1.50643 0.91766 
-0.958247 93.7125 -56.4291 89.9216 -32.5246 88.8066 -174.381 -6.16334 91.1559 -34.5871 28.8659 1.22194 63.6102 3.55141 2.84088 48.3228 20.0154 9.35772 175.069 30.7093 91.8333 -27.226 1.81052 -0.241077 58.0665 1.09131 0.738723 15.6474 0.294056 -1.51497 -1.08575 7.28632 -90.0035 12.3044 -2.15946 0.235717 0.635212 -2.14699 0.330567 -21.914 -2.13042 -0.424489 -1.90137 -2.1304 -0.424496 90.6612 -42.5259 -101.202 31.3114 -12.4048 19.0838 -7.87841 -16.5738 -33.7919 -3.13231 -0.313787 5.29351 -96.5691 -46.7479 68.4478 -11.3727 4.18264 -4.46716 9.18656 3.7516 -56.1286 16.4507 1.38678 4.52535 2.71029 -1.46671 -0.712573 -1.21348 -1.31483 1.77322 
-12.0586 94.8683 -66.5077 90.5925 -35.7414 86.9812 -175.361 -1.60311 85.068 -30.2163 19.3418 -1.55141 67.9457 8.03188 7.27949 50.4899 19.0134 4.03707 174.714 27.3672 88.2512 -8.0144 -9.82421 -0.935279 44.7973 6.64324 5.68646 35.7055 -1.54341 -7.8842 -0.842029 7.53129 -89.664 11.8173 -1.51651 0.83118 0.146903 -1.47846 0.897119 -22.3948 -1.69619 0.33688 -2.38219 -1.6962 0.33687 90.5041 -42.4617 -101.481 30.4894 -13.3241 15.2414 -8.56062 -14.6867 -36.8245 -2.34422 -0.230679 3.44204 -96.9739 -46.6385 67.8008 -11.1009 5.0272 -5.64427 8.22895 4.42389 -52.5601 16.2514 1.4423 4.95812 1.48209 -1.39274 -0.592079 0.507669 -1.27127 0.483899 
-20.5525 97.3536 -73.8818 92.0251 -38.9352 89.2354 -176.198 2.68333 84.6375 -26.4412 15.2306 -1.43368 65.6713 4.86454 5.72791 44.5601 13.5387 3.29975 176.893 23.2326 87.4637 -21.5308 -10.5627 -3.43021 55.1585 1.70714 1.35928 41.5949 -2.64829 -10.3765 -0.410808 7.51327 -89.8757 11.8486 -0.758394 0.329209 0.177823 -0.743172 0.36226 -22.3591 -0.822288 0.0860407 -2.34649 -0.822281 0.0860365 90.5646 -42.3902 -101.399 27.8378 -15.5613 10.3044 -7.61278 -11.9406 -41.0406 -4.07463 -0.319259 2.43663 -98.0612 -48.14 66.7037 -15.6581 8.4112 0.526913 7.05644 6.78236 -46.0471 18.5604 1.54324 4.46245 0.859457 -1.0593 0.224631 -0.681968 -1.06812 0.986728 
-28.4755 99.1407 -79.4721 93.0532 -39.3868 90.5863 -176.383 5.58745 85.8715 -20.9032 13.4486 -1.54784 62.4379 1.3475 2.91073 37.3368 7.50236 3.03227 175.591 17.399 86.1739 -41.9395 -1.11574 -4.58236 60.4235 -0.585521 -0.363185 40.1658 -2.23296 -9.11229 -0.206374 7.35269 -89.9342 12.1685 -0.378988 0.173578 0.497664 -0.370979 0.190084 -22.0381 -0.413636 0.0516498 -2.02546 -0.413632 0.0516494 90.7504 -41.7593 -101.254 26.146 -16.5238 3.84209 -8.65586 -10.0744 -46.102 -7.10805 -0.445077 1.41321 -97.4642 -47.7362 67.4473 -23.0118 10.1855 7.90602 5.34093 12.1885 -35.6849 13.5564 1.05586 3.71405 1.21977 -1.26522 -0.0762131 -2.62149 -1.24358 1.29227 
